<!--?xml version="1.0" standalone="no"?-->
              <svg id="sw-js-blob-svg" viewBox="0 0 100 100" xmlns="http://www.w3.org/2000/svg" version="1.1">
                    <defs> 
                        <linearGradient id="sw-gradient" x1="0" x2="1" y1="1" y2="0">
                            <stop id="stop1" stop-color="rgba(183.352, 183.352, 183.352, 1)" offset="0%"></stop>
                            <stop id="stop2" stop-color="rgba(69.076, 249.379, 228.002, 1)" offset="100%"></stop>
                        </linearGradient>
                    </defs>
                <path fill="url(#sw-gradient)" d="M25.2,-29.9C31.3,-25,33.9,-15.7,34.1,-7.1C34.3,1.5,32.2,9.5,28,15.5C23.7,21.6,17.3,25.8,9.8,29.6C2.3,33.5,-6.2,37.1,-13.3,35.1C-20.3,33.1,-25.7,25.6,-28.5,17.9C-31.3,10.1,-31.5,2.3,-31.1,-6.5C-30.7,-15.2,-29.9,-24.9,-24.6,-29.9C-19.4,-35,-9.7,-35.4,0,-35.3C9.6,-35.3,19.2,-34.8,25.2,-29.9Z" width="100%" height="100%" transform="translate(50 50)" stroke-width="0" style="transition: 0.3s;"></path>
              </svg>